<svg width="395" height="53" viewBox="0 0 395 53" fill="none" xmlns="http://www.w3.org/2000/svg">
<path d="M8 7.875L8.0625 6.625L7.9375 5.625C7.60417 5.66667 7.4375 6.35417 7.4375 7.6875L8 7.875ZM13.875 46.4375L14.125 46.375L14.0625 45.875L13.8125 45.9375L13.875 46.4375ZM13.5625 45.75L13.8125 45.6875L13.75 45.1875L13.5 45.25L13.5625 45.75ZM12.125 44.6875L11.9375 41.1875C11.1458 39.7708 10.6042 39.0625 10.3125 39.0625C10.4375 42.8125 10.9375 44.6875 11.8125 44.6875H12.125ZM27.6875 36.9375L27.625 36.4375H27.375L27.4375 36.9375H27.6875ZM14.75 38.25L14.625 37H14.375L14.5 38.25H14.75ZM29.375 36.1875L29.625 36.125L29.375 34.4375H29.125L29.375 36.1875ZM9 33L8.9375 32.5H8.6875L8.75 33H9ZM9.875 32.375L10.125 32.3125L10.0625 31.8125L9.8125 31.875L9.875 32.375ZM8.8125 31.75L9.0625 31.6875L8.9375 31H8.6875L8.8125 31.75ZM8.8125 30L9.0625 29.9375L8.9375 29.1875L8.6875 29.25L8.8125 30ZM29.6875 26.0625L29.9375 26L29.875 25.5L29.625 25.5625L29.6875 26.0625ZM11.75 25.8125L11.4375 23.3125H11.1875V24.125C11.1875 24.4167 11.1458 24.5833 11.0625 24.625C11.2708 24.875 11.4167 25.2708 11.5 25.8125H11.75ZM25.125 20.125L25.375 20.0625L25.25 19.5625L25 19.625L25.125 20.125ZM23.8125 18.0625L24.0625 18L24 17.5L23.75 17.5625L23.8125 18.0625ZM23.6875 17.3125L23.9375 17.25L23.875 14.9375L23.6875 13.8125H23.4375C23.5208 15.6458 23.6042 16.8125 23.6875 17.3125ZM23.375 13.3125L23.625 13.25L23.6875 11.75C23.4792 11.4583 23.3542 11.2083 23.3125 11L23.0625 11.0625L23.375 13.3125ZM12.25 9.5625C14.1667 9.27083 15.5625 8.97917 16.4375 8.6875C16.7708 8.8125 17.0208 8.875 17.1875 8.875L17.6875 8.5625L18.1875 8.75C18.4375 8.54167 18.8333 8.39583 19.375 8.3125V8.0625C18.0833 8.22917 17.4375 8.375 17.4375 8.5V8.5625L16.875 8.375L12.1875 9.0625L12.25 9.5625ZM12.9375 48.3125L12.625 47.9375L12.375 46.6875C11.25 45.6458 10.6042 45.125 10.4375 45.125L10.1875 45.25L10.125 46.5L10.5625 47.875L10.125 48.25H9.875L9.5625 45.8125L8.375 44.9375C8.08333 43.0625 7.85417 42.0208 7.6875 41.8125C7.6875 36.4792 7.70833 33.6667 7.75 33.375L7.5 33L7.375 30.1875L7.875 30.125L7.3125 28.4375C7.64583 28.3958 7.8125 27.5208 7.8125 25.8125L7.6875 22.0625C7.97917 22.0208 8.125 18.8958 8.125 12.6875L7.125 12.75L7.0625 14.5625L7.125 16.3125L6.625 16.4375L6.4375 12.875L5.9375 13.1875L4.5625 13.4375C3.9375 13.4375 3.45833 13.1667 3.125 12.625C2.29167 12.75 1.60417 13.4167 1.0625 14.625L1 14.6875C0.708333 14.6875 0.541667 14.5833 0.5 14.375C0.5 14.125 0.5 13.9167 0.5 13.75C1.16667 12.2917 2.14583 11.4583 3.4375 11.25L4.6875 11.375C5.4375 10.75 6.0625 10.4167 6.5625 10.375L6.4375 9.625C6.27083 9.625 6.02083 9.58333 5.6875 9.5C4.72917 9.79167 4.08333 9.95833 3.75 10C3.70833 9.83333 3.58333 9.58333 3.375 9.25C4.70833 8.70833 5.77083 7.97917 6.5625 7.0625L6.5 6.25C6.5 5.45833 6.6875 5.04167 7.0625 5C7.4375 4.95833 7.875 4.54167 8.375 3.75C8.875 4.75 9.14583 5.39583 9.1875 5.6875L9.4375 5.625L9.3125 4.875H9.8125L9.875 5.375L10.125 5.3125L10 3.4375C10 2.6875 10.1458 2.27083 10.4375 2.1875C10.8125 2.22917 11 2.45833 11 2.875L10.9375 3.4375H11C11.2917 3.4375 11.4583 3.6875 11.5 4.1875C11.5 4.52083 11.3958 5.02083 11.1875 5.6875L11.5 6.125C11.4167 6.41667 11.375 6.64583 11.375 6.8125C11.375 6.89583 11.5417 6.97917 11.875 7.0625C14.2083 6.77083 17.4167 6.22917 21.5 5.4375V4.375C21.5 2.20833 21.7292 1.125 22.1875 1.125C22.2708 1.83333 22.6875 2.35417 23.4375 2.6875C24.2292 2.47917 24.625 1.91667 24.625 1V0.4375H25.125L25.625 3.9375C25.625 4.14583 25.8958 4.33333 26.4375 4.5L26.375 3C26.375 2.375 26.5208 2.04167 26.8125 2C27.3542 2.75 27.6667 3.70833 27.75 4.875L29.5 4.5625L29.5625 5.0625C28.4792 5.27083 27.9375 5.58333 27.9375 6V6.125L28.875 6.0625C29.5833 6.0625 29.9583 6.14583 30 6.3125C30.2917 6.10417 30.6042 5.95833 30.9375 5.875L31 6.375L28.8125 7L28.875 7.25C29.9167 7.16667 30.625 7.125 31 7.125C32.25 7.125 32.8958 7.3125 32.9375 7.6875L32.5 8L28.25 8.5625C27.9167 8.60417 27.75 9.45833 27.75 11.125V11.6875C27.9583 12.0625 28.0625 12.375 28.0625 12.625C28.0625 12.9167 28.0208 13.1875 27.9375 13.4375C27.9375 13.5625 28.0208 13.625 28.1875 13.625L28.125 14.875L29.4375 24.3125H29.6875C29.6875 22.8542 29.5833 21.4167 29.375 20H29.875C30.25 22.4167 30.625 25.7292 31 29.9375L31.0625 30.375L31.3125 30.3125C31.2292 28.3542 31.1458 27.125 31.0625 26.625L31.5625 26.5C32.0208 30.0833 32.25 32.0208 32.25 32.3125C32.25 33.5208 32 34.5417 31.5 35.375C32.2917 37.9167 32.7083 39.6667 32.75 40.625C32.75 40.875 32.6042 41.0208 32.3125 41.0625C31.2708 37.0625 30.5625 35.0625 30.1875 35.0625L29.9375 35.125L30.4375 38L31.0625 37.6875L31.1875 37.9375V38.3125C31.1875 40.2708 30.8958 41.2917 30.3125 41.375C29.0625 38.9167 28.2292 37.6875 27.8125 37.6875V37.875C27.8125 38.0833 27.75 38.1875 27.625 38.1875C28.3333 40.5625 28.8125 42.7708 29.0625 44.8125L28.5625 45.125C28.2292 45.125 27.9167 44.5 27.625 43.25C27.4583 39.6667 26.4375 34.3333 24.5625 27.25L24.25 24.9375C24.25 24.8125 24.3125 24.75 24.4375 24.75L24.1875 24.25C23.6458 20.6667 23.2292 18.4583 22.9375 17.625H23.1875C23.0208 17.2917 22.6458 15.1458 22.0625 11.1875L22.125 9.9375L21.625 9.75L16.625 10.4375C13.75 10.8542 12.3125 11.3958 12.3125 12.0625L12.6875 20.125C12.8958 20.2917 13.0833 20.8333 13.25 21.75C13.25 21.9167 13.1667 22.0417 13 22.125C13 22.2083 13.0417 22.25 13.125 22.25H13.25C13.2083 22.625 13.1875 23.0208 13.1875 23.4375C13.1875 24.6875 13.4375 27.0417 13.9375 30.5C13.9375 30.6667 13.8542 30.7708 13.6875 30.8125C13.7292 30.9375 13.8333 31 14 31L13.875 32.3125L14.25 34.5H14.5L14.3125 31.5L14.8125 31.375C15.1875 35.0417 15.375 37.7083 15.375 39.375C15.375 40.7083 15.2292 41.3958 14.9375 41.4375C14.6458 42.3542 14.375 42.8333 14.125 42.875L14.5 43.3125L14.9375 46.625C14.9375 46.8333 14.7083 47.0833 14.25 47.375C14.25 47.125 13.9792 46.9167 13.4375 46.75L13.5 47.25C13.5 47.9167 13.3125 48.2708 12.9375 48.3125ZM14.5625 31.25L14.125 28.25L14.625 28.125L14.9375 30.8125C14.9375 31.0208 14.8125 31.1667 14.5625 31.25ZM7 27.6875L6.9375 27.25L7.375 27.125L7.5 27.625L7 27.6875ZM6.9375 25.4375L6.6875 23.75L7.1875 23.625L7.4375 25.375L6.9375 25.4375ZM6.875 23.1875L6.5625 20.9375L7 20.875L7.3125 23.125L6.875 23.1875ZM6.6875 20.1875L6.5 18.9375L7 18.875L7.1875 20.125L6.6875 20.1875ZM6.6875 18.4375L6.5 16.9375L6.9375 16.875L7.1875 18.375L6.6875 18.4375ZM34.8775 2.3125H36.3775C43.7108 7.5625 48.3567 10.5417 50.315 11.25C51.565 9.66667 52.2525 8.875 52.3775 8.875H53.565L54.19 9.125C54.19 9.33333 53.5858 10.2292 52.3775 11.8125C52.6692 12.6042 52.9608 13 53.2525 13C54.2525 12.0833 54.7525 11.3958 54.7525 10.9375H55.3775V11.5C55.3775 11.7083 55.2733 11.8125 55.065 11.8125L55.3775 12.4375V12.75H54.7525V13.625C54.7525 13.8333 55.5442 14.625 57.1275 16L56.565 16.3125C54.7317 15.1042 53.6275 14.5 53.2525 14.5C53.2525 15 54.8358 16.6875 58.0025 19.5625V20.4375C57.2525 20.4375 55.4817 19.4583 52.69 17.5L52.065 17.1875V17.5L54.7525 20.75H54.19L51.19 18.0625H50.8775C46.1275 24.3958 43.6692 27.5625 43.5025 27.5625C43.6692 27.9375 43.7525 28.2292 43.7525 28.4375C43.1692 29.3542 42.8775 29.9583 42.8775 30.25C42.8775 30.75 43.0858 31.8333 43.5025 33.5H42.8775C42.6692 32.75 42.565 31.9583 42.565 31.125C42.19 31.2083 42.0025 31.4167 42.0025 31.75C42.0025 32.4167 42.5025 34.3958 43.5025 37.6875C43.8775 37.6875 44.065 37.1875 44.065 36.1875C44.4817 36.3125 45.0858 37.6875 45.8775 40.3125L46.44 40.0625H46.7525V42.4375H47.065V41.5H47.6275V43.875C46.4608 45.1667 45.8775 45.875 45.8775 46C45.8775 46.2917 46.1692 46.5833 46.7525 46.875V45.6875H47.065C47.4817 45.6875 47.7733 46.6667 47.94 48.625L47.065 49.25H46.7525C44.2525 47.625 41.7733 42.375 39.315 33.5C37.7317 25.0833 36.5442 19.6458 35.7525 17.1875C35.5442 17.1875 35.1483 15.8958 34.565 13.3125C34.7733 11.5625 34.8775 10.4792 34.8775 10.0625C34.7108 8.8125 34.2108 7.625 33.3775 6.5V5.875C33.4192 5.5 33.6275 5.3125 34.0025 5.3125H34.2525L35.44 6.5C35.8567 6.5 36.065 6.29167 36.065 5.875L37.565 6.1875H37.815V5.5625C35.8567 4.27083 34.8775 3.47917 34.8775 3.1875V2.3125ZM39.6275 8.5625C39.9192 8.97917 42.69 10.6667 47.94 13.625H48.5025C46.3775 11.5 43.4192 9.8125 39.6275 8.5625ZM37.565 9.125V9.75C37.565 11.2083 38.2525 12.1042 39.6275 12.4375C39.6275 12.2292 39.7317 12.125 39.94 12.125L40.19 12.75V14.1875C40.19 15.2708 40.1067 16.6667 39.94 18.375L41.69 23.6875C41.4817 24.0625 41.3775 24.4583 41.3775 24.875L42.0025 25.1875L47.94 14.8125L37.565 9.125ZM35.19 11.8125V12.75L35.7525 13V12.75C35.5442 12.3333 35.44 12.0208 35.44 11.8125H35.19ZM39.0025 13.9375V15.375H39.315V13.9375H39.0025ZM47.065 19.5625V20.125C48.44 19.0833 49.4192 17.8958 50.0025 16.5625L49.44 16.3125C49.1483 16.3125 48.3567 17.3958 47.065 19.5625ZM38.7525 17.75V18.375C38.7525 20.1667 39.3358 22.6458 40.5025 25.8125H40.815V24.875C39.6067 20.4167 39.0025 18.0417 39.0025 17.75H38.7525ZM40.815 26.0625C40.815 26.4792 40.7108 26.6875 40.5025 26.6875C40.7108 27.0208 40.815 27.4167 40.815 27.875L41.3775 27.5625C41.2108 27.2292 41.1275 26.7292 41.1275 26.0625H40.815ZM41.3775 33.8125V34.375H41.69V33.8125H41.3775ZM44.065 37.6875V38.5625C44.1483 38.9375 44.3567 39.125 44.69 39.125V38.5625C44.4817 38.1875 44.3775 37.8958 44.3775 37.6875H44.065ZM46.1275 38.875H46.44V39.4375H46.1275V38.875ZM43.7525 39.4375V40.0625L45.2525 43.3125H45.8775C45.8775 42.7292 45.9608 42.4375 46.1275 42.4375C45.5442 41.4375 45.2525 40.6458 45.2525 40.0625L44.69 40.3125C44.2733 40.3125 44.065 40.0208 44.065 39.4375H43.7525ZM65.1925 49.8125C64.9842 49.8125 64.0883 48.7292 62.505 46.5625C59.8383 46.5625 58.505 46.375 58.505 46C58.505 45.5833 58.4842 45.2292 58.4425 44.9375C59.0675 43.8958 60.63 42.4792 63.13 40.6875L63.005 37.625C61.005 31.4583 60.005 23.2708 60.005 13.0625C60.005 10.1875 60.1508 8.04167 60.4425 6.625C60.1925 6.20833 60.0675 5.875 60.0675 5.625C60.0675 4.58333 60.7342 3.66667 62.0675 2.875C62.0675 2.66667 62.1717 2.54167 62.38 2.5C62.7133 2.5 63.2133 4.02083 63.88 7.0625C64.2967 7.0625 64.7342 7.95833 65.1925 9.75L65.5675 16.25C65.5675 16.4167 65.4633 16.5208 65.255 16.5625C65.505 16.9375 65.63 17.2292 65.63 17.4375C65.4633 17.8542 65.38 18.1667 65.38 18.375C66.755 18.7917 69.6925 21.9167 74.1925 27.75C74.2758 28.3333 75.9008 29.8958 79.0675 32.4375L80.88 32.0625L81.1925 32.625C81.0258 32.6667 80.9425 32.75 80.9425 32.875V33L81.5675 33.25C82.1508 33.25 82.4425 33.0208 82.4425 32.5625H82.3175C81.9842 32.5625 81.8175 32.375 81.8175 32C82.1092 31.7917 82.6092 31.6667 83.3175 31.625C79.9008 17.75 78.0883 8.8125 77.88 4.8125L78.505 4.4375C78.9633 4.4375 79.88 6.14583 81.255 9.5625H81.505C81.7133 9.14583 81.8175 8.83333 81.8175 8.625C81.5675 8.20833 81.4425 7.89583 81.4425 7.6875C82.1508 6.22917 82.63 5.47917 82.88 5.4375C83.3383 6.3125 83.8383 8.14583 84.38 10.9375L85.255 10.25C88.5467 22.25 90.1925 30.25 90.1925 34.25C90.1925 35.0833 90.0258 35.8333 89.6925 36.5C89.9842 37.7083 90.1508 38.625 90.1925 39.25C90.1925 39.6667 89.9842 39.8958 89.5675 39.9375C89.5675 39.5208 89.255 39.3125 88.63 39.3125L87.755 40H87.63C86.0883 40 84.9008 38.125 84.0675 34.375C75.1508 39.5 69.88 42.8542 68.255 44.4375C67.2967 44.4792 66.8175 45.0625 66.8175 46.1875V46.5625C66.8175 47.6458 66.2758 48.7292 65.1925 49.8125ZM61.6925 7.5L61.9425 5.9375L61.88 4.375L61.5675 4.4375C61.2342 5.77083 61.0675 6.5 61.0675 6.625C61.2758 7 61.38 7.29167 61.38 7.5H61.6925ZM86.0675 37L86.005 35.8125C84.005 22.6042 81.7342 12.6458 79.1925 5.9375L78.88 6L78.9425 6.875C79.1925 11.4167 81.4633 21.4583 85.755 37H86.0675ZM61.755 8.4375V7.8125H61.4425V8.4375H61.755ZM83.38 10.0625V9.4375H83.0675L83.13 10.0625H83.38ZM83.755 11.25V10.625L83.4425 10.6875V11.25H83.755ZM61.13 19.5625L61.005 18H60.755L60.8175 19.5625H61.13ZM85.0675 17.6875L85.005 17.0625H84.6925L84.755 17.6875H85.0675ZM85.38 18.875V18.25H85.0675L85.13 18.875H85.38ZM61.255 22.3125L61.13 20.125L60.8175 20.1875L60.9425 22.3125H61.255ZM85.755 19.8125V19.1875H85.4425V19.8125H85.755ZM66.1925 22.0625L66.505 22L66.4425 21.6875C66.2342 21.3125 66.13 21.0208 66.13 20.8125H65.8175V21.125C66.0258 21.5 66.1508 21.8125 66.1925 22.0625ZM68.755 24.375L69.38 24.3125C68.005 22.7708 67.2342 22 67.0675 22L67.13 22.625C68.1717 23.2917 68.7133 23.875 68.755 24.375ZM73.005 29.0625V28.75L68.8175 25.3125V25.875L73.005 29.0625ZM87.88 24.9375L88.1925 24.875L88.13 24.25L87.88 24.3125V24.9375ZM67.9425 37.9375C69.9425 37.2292 72.3383 35.9792 75.13 34.1875V33.875H75.0675C73.9425 33.875 71.255 31.4583 67.005 26.625H66.4425C67.0258 29.9583 67.5258 33.7292 67.9425 37.9375ZM75.005 31.75V31.4375C74.7967 31.4375 74.1508 31.0625 73.0675 30.3125L73.13 30.9375H73.1925C73.4842 30.9375 74.0883 31.2083 75.005 31.75ZM82.8175 33.5L83.6925 33.4375V32.8125C83.3175 33.0625 83.005 33.1875 82.755 33.1875L82.8175 33.5ZM72.505 36.8125L73.13 36.75C74.9633 35.625 76.0467 35.0625 76.38 35.0625V34.75H76.0675C73.9842 35.9167 72.7967 36.5 72.505 36.5V36.8125ZM68.3175 39.1875C70.9008 38.0208 72.1925 37.2292 72.1925 36.8125H71.88C69.2967 38.0625 68.005 38.8542 68.005 39.1875H68.3175ZM59.38 45.5L60.005 45.4375V45.3125C60.005 44.6042 60.38 44.0208 61.13 43.5625V43.25C59.9633 43.7917 59.38 44.5 59.38 45.375V45.5ZM97.0075 48.4375H96.07V48.1875C97.9033 46.6458 98.82 45.7292 98.82 45.4375L97.195 46.25L96.8825 45.75L97.3825 45L96.1325 44.125C98.6742 41.5833 100.132 39.8542 100.507 38.9375C99.0075 39.0208 96.32 41.6042 92.445 46.6875L92.1325 46.1875L101.132 35.5625C103.674 32.3125 106.299 29.1875 109.007 26.1875C109.549 25.3958 109.841 24.875 109.882 24.625C105.049 22.125 102.112 20.875 101.07 20.875V20.375L101.57 20.4375C101.57 20.1458 101.237 19.8333 100.57 19.5L100.32 19.4375V20.4375C97.1533 20.2708 95.5492 19.75 95.5075 18.875V18.4375C96.1325 18.4375 97.4242 18.7292 99.3825 19.3125H99.6325C99.5908 18.9792 98.0908 17.8958 95.1325 16.0625C93.7158 14.3958 92.2575 13.1042 90.7575 12.1875C90.7575 12.0208 90.82 11.9167 90.945 11.875L90.6325 11.4375C90.7158 11.1042 90.8825 10.9375 91.1325 10.9375C91.5492 10.9375 92.445 11.2292 93.82 11.8125C93.7783 12.0625 93.7158 12.2917 93.6325 12.5C93.7992 12.5 95.445 13.5625 98.57 15.6875H98.7575C98.7158 15.3542 96.9033 13.5 93.32 10.125C93.6117 10.125 93.7575 9.95833 93.7575 9.625C93.5075 9.625 93.2575 9.39583 93.0075 8.9375L92.5075 9.1875H92.2575C92.2992 8.72917 92.445 8.5 92.695 8.5C92.945 8.5 93.195 8.47917 93.445 8.4375C94.6117 9.6875 95.2783 10.3125 95.445 10.3125V9.75C95.445 9.58333 94.445 8.75 92.445 7.25L92.945 7C93.2367 7 93.3825 7.08333 93.3825 7.25L94.3825 6.6875C95.8408 7.27083 98.07 9.1875 101.07 12.4375C105.32 15.6458 107.695 17.2708 108.195 17.3125C108.612 18.0208 109.237 18.3958 110.07 18.4375C110.237 18.4375 110.341 18.3542 110.382 18.1875C110.924 19.1042 111.32 19.5625 111.57 19.5625C111.612 19.5625 111.632 19.4792 111.632 19.3125C111.132 15.4792 110.632 12.4583 110.132 10.25H110.382L110.07 9.75L110.007 8.8125L110.757 8.75C110.591 8 110.445 6.41667 110.32 4H110.57L111.632 5.625C111.799 5.625 112.028 5.70833 112.32 5.875C112.32 4.75 112.487 4.1875 112.82 4.1875C113.278 4.22917 114.132 8.60417 115.382 17.3125C117.299 15.7292 118.466 14.5625 118.882 13.8125C118.882 13.9375 118.924 14 119.007 14L119.32 13.5625L119.07 13.0625C119.278 13.0625 120.195 11.8958 121.82 9.5625C121.987 9.60417 122.091 9.70833 122.132 9.875C121.507 10.7083 121.195 11.1875 121.195 11.3125H121.445C122.195 10.5208 123.716 8.70833 126.007 5.875H125.82C124.445 7.04167 123.757 7.875 123.757 8.375L123.257 8.3125L123.195 8.125C124.778 5.66667 126.278 4.41667 127.695 4.375C127.695 4.04167 127.841 3.875 128.132 3.875L128.382 4.375C127.757 5.08333 127.445 5.47917 127.445 5.5625L127.507 5.8125L129.57 4.75C129.82 4.875 130.028 4.9375 130.195 4.9375H130.32C130.362 4.6875 130.841 4.29167 131.757 3.75L133.195 3.6875C133.195 5.10417 132.424 6.64583 130.882 8.3125C131.049 8.5625 131.132 8.8125 131.132 9.0625L131.632 9C132.632 7.54167 133.57 6.79167 134.445 6.75L134.757 7.25C131.424 11.2083 129.653 13.1875 129.445 13.1875L129.382 12.9375C130.632 11.4792 131.257 10.6667 131.257 10.5C131.216 10.3333 131.112 10.25 130.945 10.25C130.945 10.625 129.112 12.7708 125.445 16.6875L123.882 18.625H124.132C124.132 18.4167 124.799 17.6875 126.132 16.4375H126.382C124.841 18.5625 123.612 19.6458 122.695 19.6875L122.945 20.1875C120.487 22.6875 119.257 24 119.257 24.125C128.591 30.9167 133.257 34.3333 133.257 34.375C135.091 34.7083 136.987 35.9375 138.945 38.0625C140.57 38.7292 141.612 39.3333 142.07 39.875L141.695 40.125C139.653 38.875 137.924 38.0625 136.507 37.6875C137.341 39.1042 138.007 40.0417 138.507 40.5L138.07 41.1875V41.9375C138.57 41.9375 139.799 42.8542 141.757 44.6875C141.757 45.0208 141.612 45.2083 141.32 45.25C138.362 42.7917 136.57 41.5417 135.945 41.5C133.195 41.125 131.799 40.4583 131.757 39.5C131.549 39.625 131.32 39.7292 131.07 39.8125C130.612 39.3125 129.049 38.3958 126.382 37.0625L117.257 29.75C117.257 29.875 118.049 33.75 119.632 41.375C119.341 41.5417 119.007 41.6458 118.632 41.6875L118.945 42.875L118.257 43.375C117.882 42.625 117.674 41.8958 117.632 41.1875H117.382C117.382 41.6875 117.174 41.9375 116.757 41.9375L117.32 45.5L116.882 45.5625L116.57 44.1875C116.278 44.3125 115.966 44.3958 115.632 44.4375C115.632 43.6875 115.674 42.9583 115.757 42.25L113.445 31.5L113.195 31.5625C106.487 39.3125 102.653 43.1875 101.695 43.1875L97.695 47.6875C97.695 47.9375 97.4658 48.1875 97.0075 48.4375ZM109.507 14.625C109.091 11.0417 108.841 8.39583 108.757 6.6875H109.007C108.841 6.3125 108.757 5.91667 108.757 5.5H109.445C109.487 6.33333 109.757 7.35417 110.257 8.5625L109.82 8.8125L109.507 7.875H109.32C109.32 8.5 109.424 9.22917 109.632 10.0625H109.382L109.632 10.5C109.674 11.3333 109.799 12.6875 110.007 14.5625L109.507 14.625ZM127.07 8.9375C127.32 8.9375 127.799 8.4375 128.507 7.4375V7.1875C127.257 8.14583 126.632 8.72917 126.632 8.9375H127.07ZM122.32 9.375L122.257 8.875H122.757V8.9375C122.757 9.22917 122.612 9.375 122.32 9.375ZM123.32 11L124.507 9.5H124.257C124.257 9.58333 123.862 10.0833 123.07 11H123.32ZM127.195 11.8125L128.32 10.3125L126.695 11.625V11.8125H127.195ZM121.695 12.75C122.487 12 122.882 11.5833 122.882 11.5C122.507 11.5 122.028 11.9167 121.445 12.75H121.695ZM129.195 13.9375H128.695C128.737 13.6042 128.903 13.4375 129.195 13.4375V13.9375ZM127.82 14.9375L127.757 14.6875C127.799 14.3542 128.049 14.1875 128.507 14.1875C128.507 14.3958 128.278 14.6458 127.82 14.9375ZM98.07 16.4375V16L97.32 15.75V16.25H97.445C97.6117 16.25 97.82 16.3125 98.07 16.4375ZM110.32 16.5H109.82L109.757 15.0625H110.257L110.32 16.5ZM99.7575 16.375V16.125L99.2575 16.1875V16.375H99.7575ZM126.632 16.1875C126.674 15.8542 126.82 15.6875 127.07 15.6875L127.132 16.125L126.632 16.1875ZM100.257 18.0625V17.5625L99.57 17.125H99.32L99.2575 17.625C99.7575 17.625 100.028 17.7708 100.07 18.0625H100.257ZM110.445 20.5625V20.3125L105.507 17.125H105.32C106.903 18.625 108.612 19.7708 110.445 20.5625ZM110.57 17.6875H110.132L110.07 17L110.57 16.9375V17.6875ZM101.07 18.5L101.007 18H100.507C100.591 18.2917 100.737 18.4583 100.945 18.5H101.07ZM111.07 23.6875C111.028 23.2292 108.466 21.3958 103.382 18.1875H102.695V18.4375C104.695 19.5625 107.403 21.3125 110.82 23.6875H111.07ZM105.445 21.5C105.445 21.1667 104.216 20.2292 101.757 18.6875L101.507 18.75C103.341 20.5417 104.632 21.4583 105.382 21.5H105.445ZM122.195 19C122.445 18.9583 122.591 18.7083 122.632 18.25C122.382 18.25 122.153 18.4792 121.945 18.9375L122.195 19ZM120.57 20.9375C120.778 20.9375 121.007 20.6875 121.257 20.1875V19.9375C121.007 19.9375 120.778 20.1875 120.57 20.6875V20.9375ZM123.945 29.4375V29.25C122.528 27.9583 120.653 26.5833 118.32 25.125C118.362 26.3333 120.237 27.7708 123.945 29.4375ZM118.695 29.4375C118.695 29.1042 118.528 28.9375 118.195 28.9375L117.945 29C118.028 29.2917 118.278 29.4375 118.695 29.4375ZM109.257 33.8125C110.466 32.6042 111.612 31.2083 112.695 29.625V29.375H112.445C111.403 30.6667 110.257 32.1458 109.007 33.8125H109.257ZM124.382 33.75L124.57 33.3125C121.903 31.3125 120.028 30 118.945 29.375V29.625C120.82 31.4167 122.632 32.7917 124.382 33.75ZM105.57 31.8125L106.195 30.8125H105.757V31C105.716 31.3333 105.507 31.5208 105.132 31.5625L105.07 31.8125H105.57ZM102.82 35.25C103.112 35.25 103.257 35 103.257 34.5C102.966 34.5833 102.82 34.8333 102.82 35.25ZM103.507 35.25L103.757 35.1875V34.75H103.507V35.25ZM102.57 35.75V35.25H102.32V35.75H102.57ZM134.195 39.9375V39.6875C130.487 37.2292 128.028 35.7083 126.82 35.125V35.375C130.32 38.1667 132.695 39.6875 133.945 39.9375H134.195ZM105.507 37.5625L106.695 36.0625L106.195 36.125V36.1875C106.153 36.4792 105.841 36.9375 105.257 37.5625H105.507ZM126.382 36.375L126.882 36.3125L126.82 36.0625L126.382 36.125V36.375ZM100.507 38C100.799 37.7917 101.028 37.6875 101.195 37.6875V37.4375L100.695 37.5L100.507 38ZM137.132 41.0625L137.57 41L137.632 40.75C136.882 39.4167 135.737 38.7292 134.195 38.6875C134.195 38.9375 135.174 39.7292 137.132 41.0625ZM100.007 43.3125V43.0625C100.007 42.5625 100.299 42.2917 100.882 42.25V41.5625H100.382V41.625C100.341 42 100.028 42.4583 99.445 43L99.5075 43.25L100.007 43.3125ZM171.01 30.5625C170.802 30.1875 170.697 29.8958 170.697 29.6875C170.322 29.7292 170.135 29.9167 170.135 30.25C170.51 30.4583 170.802 30.5625 171.01 30.5625ZM154.697 37.6875V37.125H154.072C154.156 37.5 154.364 37.6875 154.697 37.6875ZM152.322 34.4375V34.125C151.322 32.75 150.718 32.0625 150.51 32.0625V32.375C151.427 33.75 152.031 34.4375 152.322 34.4375ZM173.697 25.25V24.625H173.385V25.25H173.697ZM164.51 19.3125C164.093 18.3125 163.593 17.8125 163.01 17.8125C163.01 18.0625 163.51 18.5625 164.51 19.3125ZM161.197 15.4375V14.8125H160.947V15.4375H161.197ZM160.947 40.6875C161.781 38.4792 162.572 37.375 163.322 37.375L163.01 36.8125C165.177 33.8542 166.364 32.375 166.572 32.375L166.26 31.75C168.26 28.75 169.26 26.9792 169.26 26.4375C164.177 21.1875 160.697 16.9167 158.822 13.625V13.375C158.697 13.375 158.406 13.6667 157.947 14.25L158.26 14.8125V15.125C157.468 15.125 157.072 15.9167 157.072 17.5C155.989 18.5833 154.989 20.1667 154.072 22.25V22.5625H154.385C154.385 21.7708 154.989 20.9792 156.197 20.1875V20.75C155.447 22.2917 154.739 23.4792 154.072 24.3125V24.625L154.697 24.3125V24.9375C154.697 25.1042 153.802 26.2917 152.01 28.5C153.552 33.0833 156.531 37.1458 160.947 40.6875ZM151.697 20.75C153.864 17.125 155.26 14.9583 155.885 14.25C155.885 13.7917 155.989 13.3958 156.197 13.0625V12.75H155.885L152.635 18.125C152.635 18.2917 152.239 18.875 151.447 19.875V20.75H151.697ZM171.01 30.5625V31.1875L170.447 30.875L168.635 33.5625C168.635 34.5208 168.239 35 167.447 35L167.76 35.625L163.322 42.125H163.01C163.26 43.125 163.552 43.625 163.885 43.625C163.885 43.2917 164.385 42.3958 165.385 40.9375V40.6875H165.947V40.9375L164.197 43.9375L164.76 44.8125V45.125H164.51L163.572 44.5L163.322 45.125C163.322 45.4583 164.697 46.8333 167.447 49.25V49.875C166.072 49.875 164.197 48.6875 161.822 46.3125C161.489 46.5208 161.093 46.625 160.635 46.625L160.947 47.1875L160.322 47.5L159.76 47.1875L160.01 45.6875C160.01 45.3125 159.718 45.125 159.135 45.125C159.135 45.7083 158.739 46.2917 157.947 46.875L157.635 46.3125C158.427 45.4792 158.822 44.6875 158.822 43.9375C155.822 40.0208 152.572 36.4583 149.072 33.25C147.072 31.0417 146.072 29.6458 146.072 29.0625C145.739 29.0625 144.76 29.9583 143.135 31.75C142.718 31.75 142.51 31.4583 142.51 30.875L144.572 27C144.572 26.7917 144.677 26.6875 144.885 26.6875C144.677 26.3125 144.572 25.9167 144.572 25.5C146.281 24.6667 147.385 23.1875 147.885 21.0625C152.593 14.6875 155.26 10.9167 155.885 9.75C155.593 9.75 155.302 9.45833 155.01 8.875C155.593 8.25 155.885 7.75 155.885 7.375L155.572 5.9375H155.885C156.343 5.9375 156.635 6.625 156.76 8H157.385V6.1875H157.947V7.125C158.156 7.125 158.947 6.33333 160.322 4.75C161.531 3.54167 162.531 2.9375 163.322 2.9375L163.572 3.5625V3.8125C161.822 5.4375 160.947 6.33333 160.947 6.5V7.375C161.739 7.5 162.135 7.8125 162.135 8.3125C162.135 8.6875 161.927 9.5625 161.51 10.9375V11.25C164.718 16.125 167.989 20.0833 171.322 23.125C173.864 21.3333 175.239 20.25 175.447 19.875H175.76V20.1875C174.302 21.9375 173.51 23.125 173.385 23.75C173.76 23.75 174.364 23.1458 175.197 21.9375V22.25L173.385 27.3125C173.802 27.3542 174.01 27.6458 174.01 28.1875H173.697L173.072 27.875V28.5C173.364 28.5 174.364 29.3958 176.072 31.1875C176.072 31.5625 175.781 31.75 175.197 31.75C173.614 30.7083 172.51 29.9167 171.885 29.375C171.593 30.1667 171.302 30.5625 171.01 30.5625ZM201.137 3.25H201.45V3.5625C200.867 4.3125 200.575 4.89583 200.575 5.3125L201.762 4.4375C202.137 4.47917 202.325 4.66667 202.325 5V5.3125C201.158 6.9375 200.575 7.9375 200.575 8.3125L200.887 9.75L193.45 17.5L189.887 21.9375C192.887 23.8125 196.554 26.5833 200.887 30.25H201.45V30.5625L201.137 31.1875C201.387 31.1875 204.367 34.1458 210.075 40.0625C211.45 40.7292 212.137 41.2292 212.137 41.5625V41.875H211.262C210.846 41.4583 209.45 41.0625 207.075 40.6875C207.075 40.2708 206.887 40.0625 206.512 40.0625C206.304 41.0625 205.804 41.5625 205.012 41.5625C205.012 41.3542 204.908 41.25 204.7 41.25V41.5625L207.387 44.8125L206.825 45.125H206.2C203.492 42.75 201.325 39.9792 199.7 36.8125C196.7 34.5208 195.2 32.9375 195.2 32.0625C194.2 31.3958 191.346 29.2083 186.637 25.5C186.346 25.5 185.846 26 185.137 27V30.875C185.137 35.9167 185.721 39.6667 186.887 42.125V43.0625L186.637 43.625C187.221 43.625 187.512 43.8333 187.512 44.25C186.929 44.875 186.637 45.4583 186.637 46H186.325C185.533 45.0833 184.846 44.5833 184.262 44.5V45.4375C184.846 46.1875 185.137 46.7708 185.137 47.1875L184.512 47.5H183.95C182.95 46.9167 182.45 46.2292 182.45 45.4375H182.137C182.137 45.6458 182.054 45.9375 181.887 46.3125C181.887 46.6875 182.367 47.875 183.325 49.875H182.762C182.762 49.7083 182.471 49.1042 181.887 48.0625L181.262 48.375C181.054 48 180.95 47.7083 180.95 47.5L181.262 46.875C180.679 45.9583 180.096 43.1875 179.512 38.5625C179.512 29.1458 178.512 19.25 176.512 8.875V6.1875C176.512 5.9375 176.804 5.64583 177.387 5.3125H178.012C178.387 5.3125 178.575 5.70833 178.575 6.5C178.7 6.5 179.012 6.3125 179.512 5.9375C179.554 6.3125 179.742 6.5 180.075 6.5C180.617 4.91667 181.012 4.125 181.262 4.125C182.471 7.04167 183.075 8.72917 183.075 9.1875C184.033 12.4792 184.512 15.3542 184.512 17.8125H185.45C187.617 14.6042 189.992 12.2292 192.575 10.6875C192.575 10.1042 192.971 9.60417 193.762 9.1875V9.5C194.637 9.125 195.117 8.72917 195.2 8.3125V7.6875L194.012 8.5625V8.3125C194.971 6.52083 196.075 5.125 197.325 4.125C197.7 4.20833 197.887 4.41667 197.887 4.75C196.096 6.29167 195.2 7.16667 195.2 7.375H195.512C197.221 7 198.804 6.02083 200.262 4.4375C200.387 3.64583 200.679 3.25 201.137 3.25ZM180.075 7.375V7.6875C180.408 10.0625 180.804 11.25 181.262 11.25V10.375C181.012 8.375 180.617 7.375 180.075 7.375ZM192.825 8.3125H193.137V8.875H192.825V8.3125ZM199.387 9.1875C199.387 9.27083 199.283 9.66667 199.075 10.375C199.658 10.25 200.054 9.85417 200.262 9.1875H199.387ZM179.512 10.9375V11.5625H179.762V10.9375H179.512ZM197.575 11.5625V11.875H198.2V11.5625H197.575ZM180.95 12.125C181.158 14.8333 181.262 16.8333 181.262 18.125V18.6875C181.262 19.1458 181.367 19.5417 181.575 19.875C181.367 20.2083 181.262 20.6042 181.262 21.0625V21.6875H181.575C181.95 21.6875 182.137 21.375 182.137 20.75C182.137 20 181.95 17.125 181.575 12.125H180.95ZM189.012 19.5625H189.262L190.45 18.125V17.8125C189.742 18.1875 189.262 18.7708 189.012 19.5625ZM192.825 21.0625C193.158 21.0625 193.554 21.75 194.012 23.125H193.762L193.137 22.875C193.137 23.0417 193.033 23.125 192.825 23.125C192.45 22.3333 192.262 21.75 192.262 21.375L192.825 21.0625ZM182.762 32.0625L182.45 33.5625L182.762 37.375H183.325C183.325 37.8333 183.242 38.2292 183.075 38.5625C183.075 38.8542 183.262 39.9583 183.637 41.875L184.262 41.5625C184.429 41.8958 184.512 42.3958 184.512 43.0625H184.825V42.4375C184.825 41.6042 184.429 40.625 183.637 39.5C183.846 38.4167 183.95 37.5208 183.95 36.8125H183.325L183.637 36.1875C183.262 36.1875 183.075 36 183.075 35.625V32.0625H182.762ZM180.075 35V35.625H180.387V35H180.075ZM180.7 38.875V39.1875C181.075 40.4792 181.262 41.375 181.262 41.875H181.575V41.25C181.367 40.5 181.262 39.7083 181.262 38.875H180.7ZM180.7 41.5625V42.125H180.95V41.5625H180.7ZM180.95 42.4375V42.75C181.158 43.5 181.262 44.3958 181.262 45.4375C181.679 45.4375 181.887 45.125 181.887 44.5L181.262 42.4375H180.95ZM206.512 42.4375H206.825C207.2 42.5208 207.387 42.7292 207.387 43.0625V43.3125H206.512V42.4375ZM184.512 43.3125V43.9375H184.825V43.3125H184.512ZM186.887 47.5H187.512L187.825 48.6875H187.512C187.096 48.6875 186.887 48.4792 186.887 48.0625V47.5ZM248.018 3.5625C248.434 3.72917 248.747 3.8125 248.955 3.8125C249.33 3.64583 249.622 3.5625 249.83 3.5625C249.83 3.72917 249.934 3.8125 250.143 3.8125L249.83 5.3125V7.6875C251.58 15.0208 252.768 18.6875 253.393 18.6875L253.08 19.3125V19.5625C253.08 20.0208 254.372 20.4167 256.955 20.75L257.268 21.375V21.6875H254.268C253.893 21.7292 253.705 21.9167 253.705 22.25C254.663 26.9583 255.643 30.4167 256.643 32.625H256.955V32.9375L256.33 33.8125C256.33 34.1875 257.33 35.7708 259.33 38.5625V38.875H258.705V39.75L258.455 41.875H258.143L257.518 41.5625C257.143 42.4792 256.747 42.9792 256.33 43.0625H255.768C255.768 42.2708 255.559 41.875 255.143 41.875L254.58 42.125C254.58 41.1667 254.288 40.6875 253.705 40.6875L253.955 40.0625V39.5C253.33 39.5 252.538 37.7083 251.58 34.125C251.288 34.125 250.893 33.7292 250.393 32.9375V32.625H251.33C251.247 31.9167 250.747 31.2292 249.83 30.5625V30.25L250.143 29.6875C250.143 29.3542 249.747 28.75 248.955 27.875V27.625L249.518 27.875H249.83V27.3125C249.83 26.8958 249.622 26.6875 249.205 26.6875C249.205 27.3125 249.018 27.625 248.643 27.625V27.3125L248.955 26.6875C248.955 26.5208 248.559 25.9375 247.768 24.9375H248.018C246.851 23.0208 246.268 21.8333 246.268 21.375C239.518 22.7917 236.143 24.375 236.143 26.125C236.143 26.3333 236.247 26.625 236.455 27C236.247 27.375 236.143 27.6667 236.143 27.875C236.559 27.875 237.351 30.8542 238.518 36.8125C239.143 36.8125 239.538 38.6875 239.705 42.4375C239.455 43.8125 239.163 44.5 238.83 44.5C239.122 45.625 239.413 46.4167 239.705 46.875V47.1875C239.705 47.6042 239.518 47.8125 239.143 47.8125H238.83C238.58 47.8125 237.893 46.5208 236.768 43.9375H236.455V44.25C236.872 44.875 237.08 45.3542 237.08 45.6875L236.455 46C235.663 44.125 234.872 42.75 234.08 41.875C234.08 41.5417 233.893 40.75 233.518 39.5H233.768C233.768 39 232.976 37.3125 231.393 34.4375C231.393 33.9375 231.205 32.75 230.83 30.875L231.143 30.25C230.726 27.7083 230.226 26.4375 229.643 26.4375C228.643 27.0208 227.851 27.3125 227.268 27.3125H226.393C225.976 27.3125 225.768 27.1042 225.768 26.6875C225.768 25.8542 226.372 25.375 227.58 25.25L227.268 23.75C228.851 23.1667 229.643 22.7708 229.643 22.5625C228.643 22.3125 228.143 22.0208 228.143 21.6875V21.375C228.934 20.375 229.33 19.375 229.33 18.375C228.538 12.2083 227.851 7.75 227.268 5L228.143 4.4375H228.455C228.997 4.4375 229.393 5.41667 229.643 7.375H229.955C229.955 6.79167 230.143 6.5 230.518 6.5L231.143 6.8125V4.125H232.018C232.351 6.5 232.747 7.6875 233.205 7.6875V7.125L232.893 5.625C233.309 5.625 233.518 5.33333 233.518 4.75H234.08C234.08 5.45833 234.476 9.8125 235.268 17.8125H235.58C238.205 17.0208 241.476 16.5208 245.393 16.3125C244.601 13.7292 244.205 10.75 244.205 7.375V6.1875C244.58 5.77083 244.768 5.1875 244.768 4.4375H245.08L245.643 4.75C245.643 4.45833 245.955 4.14583 246.58 3.8125H246.83V4.4375H247.455C247.455 3.85417 247.643 3.5625 248.018 3.5625ZM231.143 7.6875V8.5625C231.184 8.97917 231.372 9.1875 231.705 9.1875V8.3125C231.705 7.89583 231.518 7.6875 231.143 7.6875ZM236.143 19.875H236.455C239.247 19.2917 242.309 19 245.643 19V18.125H242.705C238.33 18.5 236.143 19.0833 236.143 19.875ZM253.955 17.8125C254.372 17.8542 254.58 18.0417 254.58 18.375L253.955 18.6875C253.58 18.6875 253.393 18.5 253.393 18.125L253.955 17.8125ZM231.705 18.375V19.3125C232.122 19.3125 232.33 19.1042 232.33 18.6875L231.705 18.375ZM237.955 20.75V21.0625H238.83C239.913 20.8542 240.705 20.75 241.205 20.75V20.5H240.643C239.559 20.6667 238.663 20.75 237.955 20.75ZM235.58 21.0625V21.6875H235.893V21.0625H235.58ZM236.455 21.0625V21.375H237.643V21.0625H236.455ZM248.018 21.9375V22.875H248.33V21.9375H248.018ZM248.33 23.125V23.75H248.643V23.125H248.33ZM248.643 24.0625V24.625H248.955V24.0625H248.643ZM251.018 24.3125V24.9375H251.58C251.58 24.5208 251.393 24.3125 251.018 24.3125ZM232.893 26.4375C233.184 27.2292 233.476 27.625 233.768 27.625V27.3125C233.601 26.9792 233.518 26.5833 233.518 26.125L232.893 26.4375ZM233.768 27.875V28.5H234.08V27.875H233.768ZM233.518 29.375V30.25C233.893 31.0417 234.08 31.75 234.08 32.375H234.393V31.4375C233.976 30.8542 233.768 30.1667 233.768 29.375H233.518ZM234.393 32.9375V33.5625H234.705V32.9375H234.393ZM253.705 33.8125C253.872 34.1458 253.955 34.6458 253.955 35.3125L254.58 35C254.372 34.6667 254.268 34.2708 254.268 33.8125H253.705ZM259.643 34.125H260.205V35.625C260.205 36 260.018 36.1875 259.643 36.1875C259.268 36.0208 258.955 35.9375 258.705 35.9375V35.3125C259.497 35.3125 259.893 35.0208 259.893 34.4375C259.726 34.4375 259.643 34.3333 259.643 34.125ZM257.83 34.75V35.3125H257.268C257.309 34.9375 257.497 34.75 257.83 34.75ZM256.08 40.375V40.6875C256.08 40.9792 256.372 41.2708 256.955 41.5625V41.25C256.955 40.9583 256.663 40.6667 256.08 40.375ZM233.518 42.75H234.08V43.3125H233.518V42.75ZM238.518 43.0625V43.625H238.83V43.0625H238.518ZM255.455 43.625H255.768L257.268 47.5V48.0625C256.643 47.9375 256.143 46.9583 255.768 45.125H255.143L255.455 43.625ZM257.268 48.0625C257.559 48.0625 257.955 48.4583 258.455 49.25V49.875H257.83C257.83 49.5833 257.643 49.1875 257.268 48.6875V48.0625ZM273.02 14.75L273.52 14.6875L273.457 14.4375C273.249 14.1458 273.145 13.9167 273.145 13.75C273.27 13.7083 273.332 13.625 273.332 13.5V13.4375L272.832 13.5L273.02 14.75ZM275.207 17.4375L275.457 17.375L275.27 16.6875C274.812 15.6875 274.562 14.9792 274.52 14.5625H274.27V14.8125C274.27 15.1042 274.228 15.3542 274.145 15.5625H274.207C274.541 15.5625 274.874 16.1875 275.207 17.4375ZM271.645 19.125C272.228 17.5 272.52 16.5833 272.52 16.375L271.957 16.1875C271.541 17.3125 271.332 18.1667 271.332 18.75C271.332 19 271.395 19.125 271.52 19.125H271.645ZM275.082 20.4375L276.52 20.25C276.395 19.5417 276.103 18.7292 275.645 17.8125L275.27 18.1875C274.895 18.1875 274.541 17.4792 274.207 16.0625C273.999 16.1458 273.791 16.5 273.582 17.125C273.916 17.7083 274.207 18 274.457 18L274.27 18.5L274.395 19.25L274.895 18.9375C274.937 19.2708 275.041 19.4375 275.207 19.4375C275.124 19.6042 275.082 19.7917 275.082 20V20.4375ZM271.895 20.875L274.332 20.5625C274.332 20.3958 274.062 19.75 273.52 18.625C273.645 18.375 273.707 18.1667 273.707 18V17.875C273.541 17.875 273.353 17.8958 273.145 17.9375C272.978 17.9375 272.541 18.8333 271.832 20.625L271.895 20.875ZM279.02 19.875V19.6875C279.02 19.3125 279.187 18.8542 279.52 18.3125C279.52 18.1458 279.437 18.0625 279.27 18.0625V18.1875C279.27 18.6042 279.041 18.8542 278.582 18.9375L278.77 19.875H279.02ZM272.332 22.125L273.27 21.9375V21.6875L272.27 21.875L272.332 22.125ZM264.77 24.3125V24.0625L263.832 24.125C263.416 24.125 263.145 24.0833 263.02 24C262.853 24.0417 262.77 24.1458 262.77 24.3125H264.77ZM270.957 25C271.124 24.875 271.27 24.7917 271.395 24.75C271.52 24.7083 271.603 24.6875 271.645 24.6875C271.853 24.6875 271.957 24.75 271.957 24.875C272.624 24.4583 273.416 24.1875 274.332 24.0625L274.27 23.8125C272.978 23.9792 272.332 24.1458 272.332 24.3125L271.832 24.125L270.832 24.25L270.957 25ZM265.145 26.375L265.645 26.25L265.582 26L265.082 26.125L265.145 26.375ZM284.145 29.9375L284.582 29.8125C284.499 29.1042 283.895 27.625 282.77 25.375H282.52L282.582 25.875C283.541 27.9583 284.062 29.3125 284.145 29.9375ZM279.707 28.75L279.957 28.6875V28.4375C279.749 28.2292 279.624 27.9583 279.582 27.625L280.082 27.5C279.624 26.875 279.374 26.4167 279.332 26.125H279.082L279.02 27.1875L279.707 28.75ZM264.645 36.6875L264.895 36.625L264.832 36.1875L264.582 36.25L264.645 36.6875ZM289.207 39L289.02 38H288.77L288.832 38.25C288.832 38.5 288.791 38.75 288.707 39H289.207ZM286.707 40.8125L286.895 40.6875V40.4375C286.728 40.2292 286.603 40.0208 286.52 39.8125L286.02 39.875C286.437 40.25 286.666 40.5625 286.707 40.8125ZM262.457 48.25L264.52 37.4375C264.478 37.2708 264.374 37.1875 264.207 37.1875C263.499 41.1042 262.874 43.125 262.332 43.25V43.1875C262.332 42.6875 263.02 39.875 264.395 34.75L264.832 34.625V35C264.832 35.25 264.812 35.4792 264.77 35.6875C264.77 35.8125 264.853 35.875 265.02 35.875V35.8125C265.02 35.3125 265.562 33.2708 266.645 29.6875C266.603 29.5208 266.499 29.4375 266.332 29.4375L266.395 29.875L265.895 29.9375V29.75C266.187 29.0833 266.332 28.5 266.332 28V27.6875L265.707 27.625C265.207 27.625 264.728 27.7083 264.27 27.875C264.228 27.5833 264.082 27.4375 263.832 27.4375C263.624 27.4792 263.52 27.5625 263.52 27.6875V27.75H261.707L263.77 26.1875C263.145 26.2708 262.645 26.3125 262.27 26.3125C261.645 26.3125 261.312 26.2083 261.27 26L262.207 24.6875L260.895 24.25H260.77C260.687 24.25 260.645 24.2292 260.645 24.1875C260.645 24.0625 260.812 23.7708 261.145 23.3125V23.5625L261.707 23.3125C261.832 23.3125 261.895 23.375 261.895 23.5C262.395 23.0833 262.874 22.8542 263.332 22.8125L263.832 22.9375C264.582 22.3542 265.874 21.875 267.707 21.5C268.249 20.125 268.582 18.4167 268.707 16.375L269.145 16.3125L269.27 16.8125C269.478 16.7708 269.791 16.0417 270.207 14.625C270.207 14.5 270.145 14.4375 270.02 14.4375H269.957V14.5625C269.957 14.9792 269.666 15.2292 269.082 15.3125L269.02 15.0625C269.187 14.2292 269.374 13.7708 269.582 13.6875C269.707 13.9792 269.874 14.125 270.082 14.125C270.416 14.125 270.582 14 270.582 13.75C270.582 13.5 270.478 13.375 270.27 13.375C270.562 12.2083 270.707 11.4583 270.707 11.125V11L269.707 12.6875L269.582 11.5625C269.582 8.97917 270.332 7.33333 271.832 6.625C271.582 6.375 271.457 6.16667 271.457 6C272.124 5.875 272.791 4.27083 273.457 1.1875L273.957 1.125L274.02 1.3125C273.645 3.72917 273.249 4.95833 272.832 5L272.895 5.5L273.582 4.875C274.207 6 274.603 7.27083 274.77 8.6875H274.895C275.562 8.6875 276.062 9.875 276.395 12.25L276.645 12.1875L276.582 13.9375C277.416 16.4375 278.02 17.6875 278.395 17.6875L278.895 17.375C279.228 17.625 279.916 18.375 280.957 19.625L282.895 19.5625C283.103 19.5208 283.353 19.4167 283.645 19.25L285.52 19.1875C286.77 19.1875 287.416 19.3542 287.457 19.6875C287.332 19.6875 287.27 19.75 287.27 19.875C286.603 19.9167 285.27 20.1667 283.27 20.625L283.207 20.8125L283.27 21L283.207 21.375H283.27C283.353 21.375 283.416 21.4167 283.457 21.5C285.166 21.25 286.666 21.125 287.957 21.125V21.1875C287.957 21.4792 287.791 21.75 287.457 22C286.707 22.0417 285.916 22.2083 285.082 22.5L285.207 23.25H285.457C285.791 23.25 285.978 23.375 286.02 23.625C285.478 24.2917 284.707 24.8125 283.707 25.1875C284.082 25.6875 284.353 26.3958 284.52 27.3125H284.27L284.332 27.8125L284.832 27.5625C285.207 27.9375 285.645 28.7083 286.145 29.875C286.062 30.0417 286.02 30.2708 286.02 30.5625L286.082 31.125L285.52 31L285.707 32.25L286.02 32.625L285.582 33C285.207 32.625 284.999 32.3125 284.957 32.0625C284.791 32.0625 284.707 32.1458 284.707 32.3125C284.916 32.6042 285.041 32.8542 285.082 33.0625L284.645 33.3125C285.103 34.1042 285.332 34.6458 285.332 34.9375H285.582V34.4375C285.916 34.4792 286.082 34.625 286.082 34.875C286.124 35.125 286.166 35.375 286.207 35.625L285.645 35.4375L285.707 35.6875C286.416 35.9792 286.791 36.25 286.832 36.5H287.082L287.02 35.75L286.395 35.0625V35C286.395 34.875 286.457 34.7917 286.582 34.75C286.374 34.4167 286.228 34.0208 286.145 33.5625L286.707 33.75L285.957 31.875L286.457 31.8125C286.499 32.3125 286.687 32.5625 287.02 32.5625C286.937 32.8542 286.895 33.1667 286.895 33.5L287.145 33.4375L287.832 32.875C287.999 33.0833 288.124 33.3125 288.207 33.5625L287.207 33.6875C287.624 34.2292 287.895 34.8542 288.02 35.5625C287.853 35.6042 287.77 35.7083 287.77 35.875H287.832C288.124 35.875 288.499 36.3333 288.957 37.25L289.457 36.875H289.707L290.645 40L289.332 39.9375L288.895 40.1875L289.207 40.6875L289.395 42.4375C289.395 43.0208 289.207 43.375 288.832 43.5C287.499 43.0833 286.437 42.125 285.645 40.625C285.478 40.7083 285.124 41.0208 284.582 41.5625H284.52C284.27 41.5625 284.02 41.3542 283.77 40.9375C284.312 40.6458 284.582 40.3958 284.582 40.1875V39.625C283.207 37.125 282.457 35.4583 282.332 34.625C283.082 35.25 283.916 36.5625 284.832 38.5625H285.082C285.041 38.1875 284.937 37.8542 284.77 37.5625L284.895 37.0625C284.687 36.8125 284.562 36.4792 284.52 36.0625C284.52 35.9375 284.582 35.8542 284.707 35.8125C284.416 34.8958 283.145 32.25 280.895 27.875H280.645L280.707 28.375C280.874 28.5417 281.041 29.1042 281.207 30.0625C280.916 29.9792 280.687 29.9375 280.52 29.9375H280.395C280.437 30.1042 281.062 31.5833 282.27 34.375C281.937 34.375 281.103 33.1875 279.77 30.8125C279.853 30.5208 279.895 30.2292 279.895 29.9375V29.6875H279.77C279.145 29.6875 278.437 28.5833 277.645 26.375L276.395 26.3125C275.895 26.3542 275.166 26.5208 274.207 26.8125C273.916 26.7292 273.478 26.6875 272.895 26.6875C272.187 26.6875 271.187 26.8125 269.895 27.0625V27.5C269.895 28.4583 269.645 29.8542 269.145 31.6875C268.728 31.7292 268.166 34.6458 267.457 40.4375H267.895V40.9375C267.645 40.9375 267.416 40.875 267.207 40.75L267.645 41.9375C266.895 43.4375 266.457 44.2083 266.332 44.25C266.082 44.1667 265.874 44.125 265.707 44.125H265.582L264.832 47.75L263.457 47.875L263.77 46.5625L263.02 46.6875V47.125C263.02 47.3333 262.978 47.4375 262.895 47.4375L263.207 47.9375V48.1875L262.457 48.25ZM265.645 31.5625L265.52 30.8125L265.957 30.6875L266.02 31C266.02 31.2917 265.895 31.4792 265.645 31.5625ZM265.145 33.0625L265.082 32.5625H265.52V32.6875C265.52 32.9375 265.395 33.0625 265.145 33.0625ZM265.332 34.0625H265.207C264.957 34.0625 264.791 33.9167 264.707 33.625C264.707 33.2917 264.853 33.1042 265.145 33.0625L265.332 34.0625ZM281.77 32.25L281.332 30.8125L281.832 30.6875L282.27 32.1875L281.77 32.25ZM268.707 35.3125L268.645 34.9375C268.645 34.5208 268.77 34.2708 269.02 34.1875L269.082 34.875C269.082 35.0833 268.957 35.2292 268.707 35.3125ZM282.707 33.375H282.645C282.353 33.375 282.166 33.1458 282.082 32.6875L282.582 32.625L282.707 33.375ZM281.957 37.5L281.52 36H281.77C281.812 36.2917 282.041 36.75 282.457 37.375L281.957 37.5ZM262.395 49.1875V48.9375C262.395 48.6458 262.52 48.4792 262.77 48.4375L262.895 49.125L262.395 49.1875ZM262.082 52.3125L261.77 51.8125C261.978 51.3125 262.082 50.9375 262.082 50.6875V50.5625L262.582 50.4375C262.582 51.6458 262.416 52.2708 262.082 52.3125ZM295.272 5.8125C295.064 5.47917 294.939 5.22917 294.897 5.0625L294.397 5.1875C294.522 5.60417 294.689 5.8125 294.897 5.8125H295.272ZM309.71 44.625L309.96 44.5625L310.147 43C309.814 43.0833 309.647 43.4583 309.647 44.125L309.71 44.625ZM307.835 45.5625C308.043 45.5208 308.356 44.9375 308.772 43.8125L308.647 43.3125C308.314 44.2292 307.918 44.75 307.46 44.875C307.668 45.125 307.793 45.3542 307.835 45.5625ZM307.272 41.5625L307.522 41.5L307.397 41.0625H307.147L307.272 41.5625ZM307.397 22.875C307.981 22.2917 308.606 19.6875 309.272 15.0625L308.835 15.1875C308.043 16.9375 307.377 19.4583 306.835 22.75L307.397 22.875ZM310.21 15.6875L310.147 15.5C310.147 15.3333 310.189 15.125 310.272 14.875L310.21 14.625L309.96 14.6875V15L309.897 15.4375C309.939 15.6042 310.043 15.6875 310.21 15.6875ZM304.335 9.75L304.835 9.625L304.772 9.375L304.272 9.5L304.335 9.75ZM302.397 9.125L302.897 9L302.835 8.75L302.335 8.875L302.397 9.125ZM305.335 48.125H305.21C304.918 48.125 304.752 47.9167 304.71 47.5C305.293 46.5 306.022 44.7917 306.897 42.375L306.647 42.5C306.022 44.1667 305.231 45.0833 304.272 45.25C304.272 45.5833 304.127 45.7917 303.835 45.875L303.522 45.4375C305.022 42.5625 306.814 37.5 308.897 30.25C309.064 30.2083 309.231 29.8125 309.397 29.0625V28.8125C308.606 28.2708 307.96 28 307.46 28L306.46 28.1875C306.377 27.7708 306.21 27.5625 305.96 27.5625H305.897C305.897 28.3958 305.71 28.8542 305.335 28.9375L305.022 28.5L304.96 27.1875L304.272 27.4375C304.272 28.1042 304.085 28.4583 303.71 28.5C303.252 28.0417 302.835 27.8125 302.46 27.8125H302.335L302.272 26.3125C299.647 25.3958 298.231 24.4167 298.022 23.375C297.897 23.375 297.21 23.25 295.96 23L295.772 22.5C295.772 22.1667 295.918 22 296.21 22C296.793 22.1667 297.377 22.25 297.96 22.25H298.272C298.272 22.0833 298.356 22 298.522 22L298.085 21.5C298.085 21 298.231 20.7292 298.522 20.6875L299.522 21L300.022 20.625C301.731 21.25 302.939 21.5625 303.647 21.5625L304.085 21.5C305.793 16.2917 306.647 13.5833 306.647 13.375C306.481 12.5417 303.772 11.3958 298.522 9.9375C295.689 8.3125 293.543 7.5 292.085 7.5L292.022 7.25C292.106 7 292.147 6.75 292.147 6.5L292.085 6.1875L292.022 6.25C291.814 6.25 291.543 6.04167 291.21 5.625L291.085 5.1875H291.335C292.002 5.1875 292.731 5.33333 293.522 5.625L293.46 5.1875C293.46 4.6875 293.71 4.35417 294.21 4.1875C294.543 4.27083 294.814 4.3125 295.022 4.3125L294.647 3.875C294.897 3.66667 295.189 3.52083 295.522 3.4375C299.064 5.4375 301.168 6.4375 301.835 6.4375L301.897 6.875L301.71 7L299.772 6.375L299.835 6.8125C302.96 7.6875 304.606 8.125 304.772 8.125L304.647 7.875C303.439 7.66667 302.793 7.39583 302.71 7.0625L302.96 6.9375C303.335 6.9375 304.939 7.625 307.772 9L308.647 7.3125L309.522 7.625L310.397 5.875C310.814 5.875 311.022 6.1875 311.022 6.8125L310.96 7.875C311.21 7.875 311.377 8.08333 311.46 8.5C311.21 9.75 311.002 10.375 310.835 10.375C311.085 10.7083 311.231 10.9583 311.272 11.125L312.022 10.9375L311.96 10.75C311.96 10.4167 312.168 10.1875 312.585 10.0625L312.71 10.75L312.397 11.625L312.835 12.25L312.335 12.625C312.335 12.5 312.272 12.4375 312.147 12.4375L311.897 12.9375C312.147 12.9375 312.877 13.2083 314.085 13.75L314.21 14.25L313.96 14.375L311.585 13.875C309.71 19 308.772 22.0833 308.772 23.125V23.375L312.272 24.4375C312.481 23.4792 313.002 22.5833 313.835 21.75C314.043 20.7083 314.252 20.1667 314.46 20.125C314.793 20.125 314.981 20.2292 315.022 20.4375C315.064 20.6458 315.106 20.8333 315.147 21L314.835 21.8125L314.96 22.3125L315.585 21.625H315.835L315.96 22.25C315.96 22.9583 315.835 23.6042 315.585 24.1875L315.71 24.6875C316.752 21.3542 317.439 19.6875 317.772 19.6875C318.022 19.6875 318.21 19.8125 318.335 20.0625C317.168 22.5208 316.46 24.4583 316.21 25.875L316.71 26.0625C317.127 24.4375 317.46 23.5833 317.71 23.5L318.085 23.9375C317.043 25.7708 316.522 27.1667 316.522 28.125L316.585 28.625L315.585 28.8125L315.71 29.5C316.21 29.5 316.502 29.625 316.585 29.875C316.585 30.2083 316.439 30.4167 316.147 30.5H314.835C313.502 32.8333 311.772 38.2292 309.647 46.6875L308.585 46.4375C308.293 46.6458 308.043 46.7708 307.835 46.8125C307.46 46.1875 306.96 45.7917 306.335 45.625C306.168 46.9583 305.835 47.7917 305.335 48.125ZM331.15 14.75L331.65 14.6875L331.587 14.4375C331.379 14.1458 331.275 13.9167 331.275 13.75C331.4 13.7083 331.462 13.625 331.462 13.5V13.4375L330.962 13.5L331.15 14.75ZM333.337 17.4375L333.587 17.375L333.4 16.6875C332.942 15.6875 332.692 14.9792 332.65 14.5625H332.4V14.8125C332.4 15.1042 332.358 15.3542 332.275 15.5625H332.337C332.671 15.5625 333.004 16.1875 333.337 17.4375ZM329.775 19.125C330.358 17.5 330.65 16.5833 330.65 16.375L330.087 16.1875C329.671 17.3125 329.462 18.1667 329.462 18.75C329.462 19 329.525 19.125 329.65 19.125H329.775ZM333.212 20.4375L334.65 20.25C334.525 19.5417 334.233 18.7292 333.775 17.8125L333.4 18.1875C333.025 18.1875 332.671 17.4792 332.337 16.0625C332.129 16.1458 331.921 16.5 331.712 17.125C332.046 17.7083 332.337 18 332.587 18L332.4 18.5L332.525 19.25L333.025 18.9375C333.067 19.2708 333.171 19.4375 333.337 19.4375C333.254 19.6042 333.212 19.7917 333.212 20V20.4375ZM330.025 20.875L332.462 20.5625C332.462 20.3958 332.192 19.75 331.65 18.625C331.775 18.375 331.837 18.1667 331.837 18V17.875C331.671 17.875 331.483 17.8958 331.275 17.9375C331.108 17.9375 330.671 18.8333 329.962 20.625L330.025 20.875ZM337.15 19.875V19.6875C337.15 19.3125 337.317 18.8542 337.65 18.3125C337.65 18.1458 337.567 18.0625 337.4 18.0625V18.1875C337.4 18.6042 337.171 18.8542 336.712 18.9375L336.9 19.875H337.15ZM330.462 22.125L331.4 21.9375V21.6875L330.4 21.875L330.462 22.125ZM322.9 24.3125V24.0625L321.962 24.125C321.546 24.125 321.275 24.0833 321.15 24C320.983 24.0417 320.9 24.1458 320.9 24.3125H322.9ZM329.087 25C329.254 24.875 329.4 24.7917 329.525 24.75C329.65 24.7083 329.733 24.6875 329.775 24.6875C329.983 24.6875 330.087 24.75 330.087 24.875C330.754 24.4583 331.546 24.1875 332.462 24.0625L332.4 23.8125C331.108 23.9792 330.462 24.1458 330.462 24.3125L329.962 24.125L328.962 24.25L329.087 25ZM323.275 26.375L323.775 26.25L323.712 26L323.212 26.125L323.275 26.375ZM342.275 29.9375L342.712 29.8125C342.629 29.1042 342.025 27.625 340.9 25.375H340.65L340.712 25.875C341.671 27.9583 342.192 29.3125 342.275 29.9375ZM337.837 28.75L338.087 28.6875V28.4375C337.879 28.2292 337.754 27.9583 337.712 27.625L338.212 27.5C337.754 26.875 337.504 26.4167 337.462 26.125H337.212L337.15 27.1875L337.837 28.75ZM322.775 36.6875L323.025 36.625L322.962 36.1875L322.712 36.25L322.775 36.6875ZM347.337 39L347.15 38H346.9L346.962 38.25C346.962 38.5 346.921 38.75 346.837 39H347.337ZM344.837 40.8125L345.025 40.6875V40.4375C344.858 40.2292 344.733 40.0208 344.65 39.8125L344.15 39.875C344.567 40.25 344.796 40.5625 344.837 40.8125ZM320.587 48.25L322.65 37.4375C322.608 37.2708 322.504 37.1875 322.337 37.1875C321.629 41.1042 321.004 43.125 320.462 43.25V43.1875C320.462 42.6875 321.15 39.875 322.525 34.75L322.962 34.625V35C322.962 35.25 322.942 35.4792 322.9 35.6875C322.9 35.8125 322.983 35.875 323.15 35.875V35.8125C323.15 35.3125 323.692 33.2708 324.775 29.6875C324.733 29.5208 324.629 29.4375 324.462 29.4375L324.525 29.875L324.025 29.9375V29.75C324.317 29.0833 324.462 28.5 324.462 28V27.6875L323.837 27.625C323.337 27.625 322.858 27.7083 322.4 27.875C322.358 27.5833 322.212 27.4375 321.962 27.4375C321.754 27.4792 321.65 27.5625 321.65 27.6875V27.75H319.837L321.9 26.1875C321.275 26.2708 320.775 26.3125 320.4 26.3125C319.775 26.3125 319.442 26.2083 319.4 26L320.337 24.6875L319.025 24.25H318.9C318.817 24.25 318.775 24.2292 318.775 24.1875C318.775 24.0625 318.942 23.7708 319.275 23.3125V23.5625L319.837 23.3125C319.962 23.3125 320.025 23.375 320.025 23.5C320.525 23.0833 321.004 22.8542 321.462 22.8125L321.962 22.9375C322.712 22.3542 324.004 21.875 325.837 21.5C326.379 20.125 326.712 18.4167 326.837 16.375L327.275 16.3125L327.4 16.8125C327.608 16.7708 327.921 16.0417 328.337 14.625C328.337 14.5 328.275 14.4375 328.15 14.4375H328.087V14.5625C328.087 14.9792 327.796 15.2292 327.212 15.3125L327.15 15.0625C327.317 14.2292 327.504 13.7708 327.712 13.6875C327.837 13.9792 328.004 14.125 328.212 14.125C328.546 14.125 328.712 14 328.712 13.75C328.712 13.5 328.608 13.375 328.4 13.375C328.692 12.2083 328.837 11.4583 328.837 11.125V11L327.837 12.6875L327.712 11.5625C327.712 8.97917 328.462 7.33333 329.962 6.625C329.712 6.375 329.587 6.16667 329.587 6C330.254 5.875 330.921 4.27083 331.587 1.1875L332.087 1.125L332.15 1.3125C331.775 3.72917 331.379 4.95833 330.962 5L331.025 5.5L331.712 4.875C332.337 6 332.733 7.27083 332.9 8.6875H333.025C333.692 8.6875 334.192 9.875 334.525 12.25L334.775 12.1875L334.712 13.9375C335.546 16.4375 336.15 17.6875 336.525 17.6875L337.025 17.375C337.358 17.625 338.046 18.375 339.087 19.625L341.025 19.5625C341.233 19.5208 341.483 19.4167 341.775 19.25L343.65 19.1875C344.9 19.1875 345.546 19.3542 345.587 19.6875C345.462 19.6875 345.4 19.75 345.4 19.875C344.733 19.9167 343.4 20.1667 341.4 20.625L341.337 20.8125L341.4 21L341.337 21.375H341.4C341.483 21.375 341.546 21.4167 341.587 21.5C343.296 21.25 344.796 21.125 346.087 21.125V21.1875C346.087 21.4792 345.921 21.75 345.587 22C344.837 22.0417 344.046 22.2083 343.212 22.5L343.337 23.25H343.587C343.921 23.25 344.108 23.375 344.15 23.625C343.608 24.2917 342.837 24.8125 341.837 25.1875C342.212 25.6875 342.483 26.3958 342.65 27.3125H342.4L342.462 27.8125L342.962 27.5625C343.337 27.9375 343.775 28.7083 344.275 29.875C344.192 30.0417 344.15 30.2708 344.15 30.5625L344.212 31.125L343.65 31L343.837 32.25L344.15 32.625L343.712 33C343.337 32.625 343.129 32.3125 343.087 32.0625C342.921 32.0625 342.837 32.1458 342.837 32.3125C343.046 32.6042 343.171 32.8542 343.212 33.0625L342.775 33.3125C343.233 34.1042 343.462 34.6458 343.462 34.9375H343.712V34.4375C344.046 34.4792 344.212 34.625 344.212 34.875C344.254 35.125 344.296 35.375 344.337 35.625L343.775 35.4375L343.837 35.6875C344.546 35.9792 344.921 36.25 344.962 36.5H345.212L345.15 35.75L344.525 35.0625V35C344.525 34.875 344.587 34.7917 344.712 34.75C344.504 34.4167 344.358 34.0208 344.275 33.5625L344.837 33.75L344.087 31.875L344.587 31.8125C344.629 32.3125 344.817 32.5625 345.15 32.5625C345.067 32.8542 345.025 33.1667 345.025 33.5L345.275 33.4375L345.962 32.875C346.129 33.0833 346.254 33.3125 346.337 33.5625L345.337 33.6875C345.754 34.2292 346.025 34.8542 346.15 35.5625C345.983 35.6042 345.9 35.7083 345.9 35.875H345.962C346.254 35.875 346.629 36.3333 347.087 37.25L347.587 36.875H347.837L348.775 40L347.462 39.9375L347.025 40.1875L347.337 40.6875L347.525 42.4375C347.525 43.0208 347.337 43.375 346.962 43.5C345.629 43.0833 344.567 42.125 343.775 40.625C343.608 40.7083 343.254 41.0208 342.712 41.5625H342.65C342.4 41.5625 342.15 41.3542 341.9 40.9375C342.442 40.6458 342.712 40.3958 342.712 40.1875V39.625C341.337 37.125 340.587 35.4583 340.462 34.625C341.212 35.25 342.046 36.5625 342.962 38.5625H343.212C343.171 38.1875 343.067 37.8542 342.9 37.5625L343.025 37.0625C342.817 36.8125 342.692 36.4792 342.65 36.0625C342.65 35.9375 342.712 35.8542 342.837 35.8125C342.546 34.8958 341.275 32.25 339.025 27.875H338.775L338.837 28.375C339.004 28.5417 339.171 29.1042 339.337 30.0625C339.046 29.9792 338.817 29.9375 338.65 29.9375H338.525C338.567 30.1042 339.192 31.5833 340.4 34.375C340.067 34.375 339.233 33.1875 337.9 30.8125C337.983 30.5208 338.025 30.2292 338.025 29.9375V29.6875H337.9C337.275 29.6875 336.567 28.5833 335.775 26.375L334.525 26.3125C334.025 26.3542 333.296 26.5208 332.337 26.8125C332.046 26.7292 331.608 26.6875 331.025 26.6875C330.317 26.6875 329.317 26.8125 328.025 27.0625V27.5C328.025 28.4583 327.775 29.8542 327.275 31.6875C326.858 31.7292 326.296 34.6458 325.587 40.4375H326.025V40.9375C325.775 40.9375 325.546 40.875 325.337 40.75L325.775 41.9375C325.025 43.4375 324.587 44.2083 324.462 44.25C324.212 44.1667 324.004 44.125 323.837 44.125H323.712L322.962 47.75L321.587 47.875L321.9 46.5625L321.15 46.6875V47.125C321.15 47.3333 321.108 47.4375 321.025 47.4375L321.337 47.9375V48.1875L320.587 48.25ZM323.775 31.5625L323.65 30.8125L324.087 30.6875L324.15 31C324.15 31.2917 324.025 31.4792 323.775 31.5625ZM323.275 33.0625L323.212 32.5625H323.65V32.6875C323.65 32.9375 323.525 33.0625 323.275 33.0625ZM323.462 34.0625H323.337C323.087 34.0625 322.921 33.9167 322.837 33.625C322.837 33.2917 322.983 33.1042 323.275 33.0625L323.462 34.0625ZM339.9 32.25L339.462 30.8125L339.962 30.6875L340.4 32.1875L339.9 32.25ZM326.837 35.3125L326.775 34.9375C326.775 34.5208 326.9 34.2708 327.15 34.1875L327.212 34.875C327.212 35.0833 327.087 35.2292 326.837 35.3125ZM340.837 33.375H340.775C340.483 33.375 340.296 33.1458 340.212 32.6875L340.712 32.625L340.837 33.375ZM340.087 37.5L339.65 36H339.9C339.942 36.2917 340.171 36.75 340.587 37.375L340.087 37.5ZM320.525 49.1875V48.9375C320.525 48.6458 320.65 48.4792 320.9 48.4375L321.025 49.125L320.525 49.1875ZM320.212 52.3125L319.9 51.8125C320.108 51.3125 320.212 50.9375 320.212 50.6875V50.5625L320.712 50.4375C320.712 51.6458 320.546 52.2708 320.212 52.3125ZM349.965 50.5625L349.402 49.8125C350.694 48.8958 352.09 48.3333 353.59 48.125V47.625L350.84 48.5L350.59 48C351.257 47.4583 352.236 46.9167 353.527 46.375C353.486 46.2083 353.382 46.125 353.215 46.125C351.882 46.4167 350.694 46.5625 349.652 46.5625C349.361 46.5625 349.215 46.4167 349.215 46.125C349.215 45.4583 351.361 44.8333 355.652 44.25C355.277 43.875 355.09 43.6458 355.09 43.5625C355.09 43.2292 355.34 43.0417 355.84 43C356.382 43.2917 356.882 43.4375 357.34 43.4375L359.652 43.3125C360.069 43.3125 360.277 43.1875 360.277 42.9375C360.194 41.6458 359.986 41 359.652 41L360.59 20.6875C360.382 20.3958 360.277 20.0625 360.277 19.6875C360.611 19.6875 360.777 19.5208 360.777 19.1875C360.736 15.8958 360.694 13.7292 360.652 12.6875L360.152 12.4375L357.902 12.8125L357.652 12.3125C357.652 11.8125 357.798 11.5625 358.09 11.5625L360.59 11.4375V11.1875C357.548 10.5625 356.007 10.0417 355.965 9.625L356.215 9.125C356.048 8.83333 355.944 8.5 355.902 8.125C356.069 8.125 356.152 8.04167 356.152 7.875L358.652 8L360.152 7.9375V7.75C360.152 7.20833 360.298 6.91667 360.59 6.875C360.923 6.875 361.111 7.20833 361.152 7.875L362.34 6.0625C362.84 6.0625 363.09 6.20833 363.09 6.5C362.84 6.54167 362.611 6.8125 362.402 7.3125V7.5625C363.486 7.52083 364.027 6.83333 364.027 5.5L365.402 3.125L365.715 3.625C365.59 4.04167 365.527 4.5625 365.527 5.1875V5.625H366.277L366.34 6.125L366.09 6.625C366.423 6.75 366.673 6.8125 366.84 6.8125C366.923 6.8125 367.257 6.70833 367.84 6.5C368.007 6.5 368.09 6.58333 368.09 6.75L369.34 6.4375H374.34L373.777 4.9375L374.277 4.6875C374.277 4.85417 374.361 4.9375 374.527 4.9375V4.3125C374.527 3.22917 374.736 2.66667 375.152 2.625C375.486 2.625 375.882 3.6875 376.34 5.8125H376.59V5.625C376.59 4.66667 377.111 3.79167 378.152 3L378.777 4.4375C378.611 4.72917 378.527 5.0625 378.527 5.4375L378.59 6.1875L379.59 6.4375L383.34 5.9375C383.673 6.3125 383.861 6.8125 383.902 7.4375L385.152 7.375C385.486 7.41667 385.673 7.5625 385.715 7.8125C384.382 8.14583 383.715 8.4375 383.715 8.6875L383.215 8.5L381.965 8.5625C381.965 9.0625 382.486 9.35417 383.527 9.4375L383.59 10.1875C382.507 9.9375 381.652 9.8125 381.027 9.8125L379.777 10.125L379.84 10.375H380.152C380.944 10.375 381.34 10.5208 381.34 10.8125C380.048 11.0625 379.402 11.3542 379.402 11.6875C379.694 17.6458 380.736 26.3333 382.527 37.75H382.777L382.715 36.75H383.215C383.423 38.0833 383.569 39.4167 383.652 40.75C388.111 40 390.611 39.6042 391.152 39.5625C391.527 40.2292 391.715 40.8125 391.715 41.3125C391.173 41.8542 390.194 42.1458 388.777 42.1875V42.4375C391.111 42.3125 392.861 42.1458 394.027 41.9375L394.277 42.4375C394.277 42.6458 393.715 43 392.59 43.5L389.59 43.6875V43.75C389.59 44.3333 388.444 44.7917 386.152 45.125V44.875L385.652 45.125L382.652 45.3125C382.736 45.8958 382.861 46.4583 383.027 47L382.527 47.3125L381.215 45.625H380.465L380.715 46.125L380.84 48.125C380.84 48.375 380.59 48.6458 380.09 48.9375C379.59 48.9375 379.34 48.6875 379.34 48.1875C379.59 47.7292 379.715 47.2917 379.715 46.875V45.6875C368.09 46.7292 362.277 47.5417 362.277 48.125C362.611 48.125 362.798 48.2708 362.84 48.5625C362.84 49.0625 362.673 49.3333 362.34 49.375C361.34 48.8333 360.819 48.3542 360.777 47.9375H360.527C360.527 49.6042 360.319 50.4583 359.902 50.5C359.402 50.5 359.152 50.3333 359.152 50C359.236 49.4167 359.277 48.8333 359.277 48.25C358.611 48.3333 355.507 49.1042 349.965 50.5625ZM379.215 8.4375C379.215 8.27083 380.527 8.04167 383.152 7.75C383.152 7.41667 383.236 7.22917 383.402 7.1875C383.236 6.89583 383.132 6.66667 383.09 6.5L381.902 7.3125C381.361 7.1875 380.882 7.125 380.465 7.125H380.152C379.402 7.5 379.007 7.85417 378.965 8.1875C379.132 8.1875 379.215 8.27083 379.215 8.4375ZM373.965 8.4375L373.902 7.9375L373.652 8L373.715 8.4375H373.965ZM361.777 10.625L362.027 10.5625V10.0625L361.777 10.125V10.625ZM364.527 42.75L368.215 42.0625V42.3125C368.632 42.1042 369.465 41.875 370.715 41.625V41.875C371.548 41.5 373.048 41.2708 375.215 41.1875L375.715 41.125V41.625C374.882 41.7083 374.048 41.8333 373.215 42C373.257 42.1667 373.361 42.25 373.527 42.25C374.402 42.0417 375.298 41.9167 376.215 41.875V41.8125C376.215 41.1875 376.861 40.8333 378.152 40.75C377.444 40.75 376.423 30.7083 375.09 10.625C371.673 10.875 369.34 11.1667 368.09 11.5L367.84 11C366.798 11.0833 366.277 12 366.277 13.75V14.375C365.111 19.125 364.527 22.25 364.527 23.75L364.59 39.875C364.59 40.9167 364.402 41.7917 364.027 42.5C364.361 42.5 364.527 42.5833 364.527 42.75ZM364.84 15.4375V15C364.84 14.1667 365.007 13.0625 365.34 11.6875C364.798 11.6875 364.527 12.6875 364.527 14.6875L364.59 15.4375H364.84ZM361.715 13.375L361.652 12.875H361.402L361.465 13.375H361.715ZM363.84 20.75L363.777 20H363.527L363.59 20.75H363.84ZM363.402 21.5C363.694 21.5 363.84 21.375 363.84 21.125V21H363.34L363.402 21.5ZM363.652 22.5V21.75H363.402V22.5H363.652ZM363.277 24.0625L363.527 24L363.465 23L363.215 23.0625L363.277 24.0625ZM382.09 34.8125V34.5625L382.59 34.5V34.75L382.09 34.8125ZM382.465 36.3125L382.402 35.5625L382.902 35.5L382.965 36.25L382.465 36.3125ZM360.527 38.6875V38.1875H360.277V38.6875H360.527ZM360.59 39.6875L360.527 38.9375H360.277L360.34 39.6875H360.59ZM382.34 39.3125V39.0625C382.173 38.7292 382.069 38.4792 382.027 38.3125H381.777L381.84 38.5625C382.007 38.8958 382.09 39.1458 382.09 39.3125H382.34ZM382.215 40.8125L383.402 40.75C382.902 40.2083 382.632 39.7917 382.59 39.5L382.09 39.5625L382.215 40.8125ZM372.527 42.3125L372.465 42.0625H371.965L372.027 42.3125H372.527ZM372.59 43.8125C374.132 43.7292 375.048 43.6042 375.34 43.4375C375.632 43.5625 375.965 43.625 376.34 43.625L378.09 43.25V43.5C378.34 43.3333 378.736 43.2292 379.277 43.1875C379.277 43.0625 379.027 42.8333 378.527 42.5C378.027 42.7083 376.048 43.0625 372.59 43.5625V43.8125ZM383.027 42.75C383.527 42.5833 384.694 42.4375 386.527 42.3125V42.0625L382.527 42.3125V42.5625H382.715C382.923 42.5625 383.027 42.625 383.027 42.75ZM368.09 44.0625L368.59 44V43.75L368.09 43.8125V44.0625ZM369.34 44V43.75H368.84V44H369.34ZM355.402 45C356.777 44.9167 358.111 44.7708 359.402 44.5625V44.3125L358.152 44.375C356.694 44.625 355.777 44.75 355.402 44.75V45ZM366.34 44.375L367.59 44.3125V44.0625L366.34 44.125V44.375ZM353.715 45.625L355.215 45.3125L355.152 45.0625L353.715 45.125V45.625ZM352.465 45.6875L353.215 45.625V45.375L352.465 45.4375V45.6875ZM358.34 47.875V47.625H357.84V47.875H358.34ZM355.59 48.25L356.59 48.1875V47.9375L355.59 48V48.25ZM354.34 48.5625L355.34 48.5V48.25L354.34 48.3125V48.5625Z" fill="#F5F5F5"/>
</svg>
