<svg width="93" height="93" viewBox="0 0 93 93" fill="none" xmlns="http://www.w3.org/2000/svg">
<rect width="93" height="93" fill="#266DD3"/>
<rect x="18" y="23" width="55" height="48" fill="#202030"/>
<path d="M46.5 2C20.8125 2 0 22.1411 0 47C0 71.8589 20.8125 92 46.5 92C72.1875 92 93 71.8589 93 47C93 22.1411 72.1875 2 46.5 2ZM68.0625 32.6109C67.3688 39.7238 64.3312 56.998 62.7937 64.9637C62.1375 68.3387 60.8625 69.4637 59.625 69.5726C56.925 69.8085 54.8813 67.8488 52.2563 66.1794C48.1688 63.5847 45.8438 61.9698 41.8875 59.4294C37.2938 56.5081 40.275 54.8931 42.8812 52.2621C43.575 51.5726 55.4625 41.1028 55.6875 40.1593C55.725 40.0323 55.7437 39.5968 55.4625 39.3609C55.1812 39.125 54.7875 39.2157 54.5063 39.2702C54.0938 39.3548 47.5563 43.5343 34.8937 51.8085C33.0438 53.0423 31.3625 53.6411 29.85 53.6048C28.1812 53.5685 24.9937 52.6976 22.6125 51.9536C19.7062 51.0464 17.3813 50.5564 17.5875 48.996C17.6875 48.1855 18.8438 47.3569 21.0563 46.5101C34.6063 40.8004 43.6437 37.0323 48.1687 35.2056C61.0875 30.0161 63.7687 29.1089 65.5125 29.0726C65.9062 29.0726 66.75 29.1633 67.3125 29.5988C67.6796 29.9111 67.9135 30.3445 67.9688 30.8145C68.0701 31.4079 68.1016 32.0106 68.0625 32.6109Z" fill="#266DD3"/>
</svg>
