<svg width="93" height="90" viewBox="0 0 93 90" fill="none" xmlns="http://www.w3.org/2000/svg">
<path d="M46.5 0C20.8125 0 0 20.1411 0 45C0 69.8589 20.8125 90 46.5 90C72.1875 90 93 69.8589 93 45C93 20.1411 72.1875 0 46.5 0ZM68.0625 30.6109C67.3688 37.7238 64.3312 54.998 62.7937 62.9637C62.1375 66.3387 60.8625 67.4637 59.625 67.5726C56.925 67.8085 54.8813 65.8488 52.2563 64.1794C48.1688 61.5847 45.8437 59.9698 41.8875 57.4294C37.2938 54.5081 40.275 52.8931 42.8812 50.2621C43.575 49.5726 55.4625 39.1028 55.6875 38.1593C55.725 38.0323 55.7437 37.5968 55.4625 37.3609C55.1812 37.125 54.7875 37.2157 54.5063 37.2702C54.0938 37.3548 47.5563 41.5343 34.8938 49.8085C33.0438 51.0423 31.3625 51.6411 29.85 51.6048C28.1813 51.5685 24.9937 50.6976 22.6125 49.9536C19.7062 49.0464 17.3813 48.5565 17.5875 46.996C17.6875 46.1855 18.8438 45.3569 21.0563 44.5101C34.6063 38.8004 43.6437 35.0323 48.1687 33.2056C61.0875 28.0161 63.7687 27.1089 65.5125 27.0726C65.9062 27.0726 66.75 27.1633 67.3125 27.5988C67.6796 27.9111 67.9135 28.3445 67.9687 28.8145C68.0701 29.4079 68.1016 30.0106 68.0625 30.6109Z" fill="#E2C044"/>
</svg>
