<svg width="105" height="93" viewBox="0 0 105 93" fill="none" xmlns="http://www.w3.org/2000/svg">
<rect x="8" width="93" height="93" fill="#E2C044"/>
<circle cx="53" cy="47" r="45" fill="#E2C044"/>
<rect x="26" y="19" width="59" height="53" fill="#202030"/>
<mask id="mask0_44_111" style="mask-type:alpha" maskUnits="userSpaceOnUse" x="0" y="10" width="105" height="74">
<path d="M102.809 21.5818C101.597 17.0146 98.041 13.4302 93.5234 12.2161C85.3341 10 52.5 10 52.5 10C52.5 10 19.6659 10 11.4766 12.2161C6.95899 13.4302 3.4026 17.0146 2.19151 21.5818C0 29.849 0 47.0771 0 47.0771C0 47.0771 0 64.3052 2.19151 72.5724C3.4026 77.1396 6.95899 80.5698 11.4766 81.7839C19.6659 84 52.5 84 52.5 84C52.5 84 85.3341 84 93.5234 81.7839C98.041 80.5698 101.597 77.1203 102.809 72.5724C105 64.3052 105 47.0771 105 47.0771C105 47.0771 105 29.849 102.809 21.5818ZM41.7732 62.725V31.4292L69.2054 47.0771L41.7732 62.725Z" fill="#266DD3"/>
</mask>
<g mask="url(#mask0_44_111)">
<path d="M98 47C98 71.8528 77.8528 92 53 92C28.1472 92 8 71.8528 8 47C8 22.1472 28.1472 2 53 2C77.8528 2 98 22.1472 98 47Z" fill="#E2C044"/>
</g>
</svg>
