<svg width="93" height="93" viewBox="0 0 93 93" fill="none" xmlns="http://www.w3.org/2000/svg">
<rect width="93" height="93" fill="#266DD3"/>
<circle cx="45" cy="47" r="45" fill="#266DD3"/>
<rect x="18" y="19" width="59" height="53" fill="#202030"/>
<mask id="mask0_44_112" style="mask-type:alpha" maskUnits="userSpaceOnUse" x="-8" y="10" width="105" height="74">
<path d="M94.8085 21.5818C93.5974 17.0146 90.041 13.4302 85.5234 12.2161C77.3341 10 44.5 10 44.5 10C44.5 10 11.6659 10 3.47657 12.2161C-1.04101 13.4302 -4.5974 17.0146 -5.80849 21.5818C-8 29.849 -8 47.0771 -8 47.0771C-8 47.0771 -8 64.3052 -5.80849 72.5724C-4.5974 77.1396 -1.04101 80.5698 3.47657 81.7839C11.6659 84 44.5 84 44.5 84C44.5 84 77.3341 84 85.5234 81.7839C90.041 80.5698 93.5974 77.1203 94.8085 72.5724C97 64.3052 97 47.0771 97 47.0771C97 47.0771 97 29.849 94.8085 21.5818ZM33.7732 62.725V31.4292L61.2054 47.0771L33.7732 62.725Z" fill="#266DD3"/>
</mask>
<g mask="url(#mask0_44_112)">
<path d="M90 47C90 71.8528 69.8528 92 45 92C20.1472 92 0 71.8528 0 47C0 22.1472 20.1472 2 45 2C69.8528 2 90 22.1472 90 47Z" fill="#266DD3"/>
</g>
</svg>
