<svg width="93" height="93" viewBox="0 0 93 93" fill="none" xmlns="http://www.w3.org/2000/svg">
<rect width="93" height="93" fill="#266DD3"/>
<circle cx="45" cy="47" r="45" fill="#266DD3"/>
<ellipse cx="46.5" cy="49.5" rx="27.5" ry="26.5" fill="#202030"/>
<path d="M19.4297 23.3594C15 27.7188 15 34.7353 15 48.7545V51.2455C15 65.2647 15 72.2812 19.4297 76.6406C23.8594 81 30.9891 81 45.2344 81H47.7656C62.0109 81 69.1406 81 73.5703 76.6406C78 72.2812 78 65.2647 78 51.2455V48.7545C78 34.7353 78 27.7188 73.5703 23.3594C69.1406 19 62.0109 19 47.7656 19H45.2344C30.9891 19 23.8594 19 19.4297 23.3594ZM25.6312 37.8629H32.8172C33.0562 49.6955 38.3578 54.7054 42.5625 55.7295V37.8629H49.3406V48.0625C53.4891 47.6196 57.8344 42.9696 59.3109 37.8629H66.0891C65.5266 40.5063 64.4297 43.025 62.8406 45.2393C61.2516 47.4536 59.2266 49.3219 56.8641 50.7196C59.4937 52.0067 61.8141 53.8196 63.6703 56.0616C65.5406 58.2897 66.8906 60.8777 67.6641 63.6594H60.1969C59.5219 61.2513 58.1156 59.0786 56.1891 57.4455C54.2484 55.7987 51.8719 54.7607 49.3406 54.4424V63.6594H48.525C34.1672 63.6594 25.9687 53.9719 25.6312 37.8629Z" fill="#266DD3"/>
</svg>
